<svg fill="none" xmlns="http://www.w3.org/2000/svg" viewBox="0 0 112 113" height="32"><g clip-path="url(#a)"><path d="M89.7 93.695c4.666 3.5 11.666 1.167 5.25-5.25-19.25-18.667-15.168-70-39.084-70s-19.833 51.333-39.083 70c-7 7 .583 8.75 5.25 5.25 18.083-12.25 16.916-33.833 33.833-33.833s15.75 21.583 33.833 33.833" fill="#3186ff"/><mask id="b" maskUnits="userSpaceOnUse" x="13" y="18" width="85" height="78" style="mask-type:alpha" fill="none"><path d="M89.7 93.695c4.666 3.5 11.666 1.167 5.25-5.25-19.25-18.667-15.168-70-39.084-70s-19.833 51.333-39.083 70c-7 7 .583 8.75 5.25 5.25 18.083-12.25 16.916-33.833 33.833-33.833s15.75 21.583 33.833 33.833" fill="#000"/></mask><g mask="url(#b)"><g filter="url(#c)"><ellipse cx="22.787" cy="26.81" rx="22.787" ry="26.81" transform="rotate(96.476 40.06 21.81)" fill="#ffe432"/></g><g filter="url(#d)"><ellipse cx="96.491" cy="35.123" rx="29.501" ry="30.149" transform="rotate(76.924 96.491 35.123)" fill="#fc413d"/></g><g filter="url(#e)"><ellipse cx="9.03" cy="41.665" rx="30.832" ry="39.942" transform="rotate(74.126 9.03 41.665)" fill="#00b95c"/></g><g filter="url(#f)"><ellipse cx="9.03" cy="41.665" rx="30.832" ry="39.942" transform="rotate(74.126 9.03 41.665)" fill="#00b95c"/></g><g filter="url(#g)"><ellipse cx="11.221" cy="42.892" rx="30.22" ry="33.27" transform="rotate(45.606 11.221 42.892)" fill="#00b95c"/></g><g filter="url(#h)"><ellipse cx="75.755" cy="104.822" rx="29.018" ry="27.943" transform="rotate(76.924 75.755 104.822)" fill="#3186ff"/></g><g filter="url(#i)"><ellipse cx="33.566" cy="35.404" rx="33.566" ry="35.404" transform="rotate(114.176 55.533 25.182)" fill="#fbbc04"/></g><g filter="url(#j)"><path d="M2.568 149.695c-18.38-7.215 13.03-66.579 20.841-86.475s29.042-30.175 47.422-22.96 40.165 46.956 32.354 66.852c-7.81 19.896-82.237 49.798-100.617 42.583" fill="#3186ff"/></g><g filter="url(#k)"><path d="M113.934 75.808c-4.921 5.743-17.762 2.814-28.681-6.541S69.47 47.67 74.391 41.928s17.761-2.814 28.681 6.541c10.919 9.356 15.783 21.596 10.862 27.339" fill="#749bff"/></g><g filter="url(#l)"><ellipse cx="92.611" cy="23.796" rx="44.241" ry="27.502" transform="rotate(34.076 92.611 23.796)" fill="#fc413d"/></g><g filter="url(#m)"><ellipse cx="23.495" cy="29.589" rx="23.707" ry="13.787" transform="rotate(112.516 23.495 29.589)" fill="#ffee48"/></g></g></g><defs><filter id="c" x="2.493" y="-26.542" width="69.09" height="61.252" filterUnits="userSpaceOnUse" color-interpolation-filters="sRGB"><feFlood flood-opacity="0" result="BackgroundImageFix"/><feBlend in="SourceGraphic" in2="BackgroundImageFix" result="shape"/><feGaussianBlur stdDeviation="3.89" result="effect1_foregroundBlur_6001_463"/></filter><filter id="d" x="28.752" y="-32.033" width="135.477" height="134.313" filterUnits="userSpaceOnUse" color-interpolation-filters="sRGB"><feFlood flood-opacity="0" result="BackgroundImageFix"/><feBlend in="SourceGraphic" in2="BackgroundImageFix" result="shape"/><feGaussianBlur stdDeviation="18.808" result="effect1_foregroundBlur_6001_463"/></filter><filter id="e" x="-62.288" y="-21.925" width="142.637" height="127.18" filterUnits="userSpaceOnUse" color-interpolation-filters="sRGB"><feFlood flood-opacity="0" result="BackgroundImageFix"/><feBlend in="SourceGraphic" in2="BackgroundImageFix" result="shape"/><feGaussianBlur stdDeviation="15.988" result="effect1_foregroundBlur_6001_463"/></filter><filter id="f" x="-62.288" y="-21.925" width="142.637" height="127.18" filterUnits="userSpaceOnUse" color-interpolation-filters="sRGB"><feFlood flood-opacity="0" result="BackgroundImageFix"/><feBlend in="SourceGraphic" in2="BackgroundImageFix" result="shape"/><feGaussianBlur stdDeviation="15.988" result="effect1_foregroundBlur_6001_463"/></filter><filter id="g" x="-52.57" y="-20.835" width="127.582" height="127.452" filterUnits="userSpaceOnUse" color-interpolation-filters="sRGB"><feFlood flood-opacity="0" result="BackgroundImageFix"/><feBlend in="SourceGraphic" in2="BackgroundImageFix" result="shape"/><feGaussianBlur stdDeviation="15.988" result="effect1_foregroundBlur_6001_463"/></filter><filter id="h" x="17.362" y="45.465" width="116.786" height="118.715" filterUnits="userSpaceOnUse" color-interpolation-filters="sRGB"><feFlood flood-opacity="0" result="BackgroundImageFix"/><feBlend in="SourceGraphic" in2="BackgroundImageFix" result="shape"/><feGaussianBlur stdDeviation="15.194" result="effect1_foregroundBlur_6001_463"/></filter><filter id="i" x="-7.448" y="-60.474" width="125.303" height="122.858" filterUnits="userSpaceOnUse" color-interpolation-filters="sRGB"><feFlood flood-opacity="0" result="BackgroundImageFix"/><feBlend in="SourceGraphic" in2="BackgroundImageFix" result="shape"/><feGaussianBlur stdDeviation="13.77" result="effect1_foregroundBlur_6001_463"/></filter><filter id="j" x="-27.709" y="13.36" width="157.119" height="162.029" filterUnits="userSpaceOnUse" color-interpolation-filters="sRGB"><feFlood flood-opacity="0" result="BackgroundImageFix"/><feBlend in="SourceGraphic" in2="BackgroundImageFix" result="shape"/><feGaussianBlur stdDeviation="12.297" result="effect1_foregroundBlur_6001_463"/></filter><filter id="k" x="50.464" y="16.981" width="87.397" height="83.774" filterUnits="userSpaceOnUse" color-interpolation-filters="sRGB"><feFlood flood-opacity="0" result="BackgroundImageFix"/><feBlend in="SourceGraphic" in2="BackgroundImageFix" result="shape"/><feGaussianBlur stdDeviation="11.004" result="effect1_foregroundBlur_6001_463"/></filter><filter id="l" x="34.26" y="-28.457" width="116.701" height="104.506" filterUnits="userSpaceOnUse" color-interpolation-filters="sRGB"><feFlood flood-opacity="0" result="BackgroundImageFix"/><feBlend in="SourceGraphic" in2="BackgroundImageFix" result="shape"/><feGaussianBlur stdDeviation="9.294" result="effect1_foregroundBlur_6001_463"/></filter><filter id="m" x="-15.152" y="-15.949" width="77.294" height="91.076" filterUnits="userSpaceOnUse" color-interpolation-filters="sRGB"><feFlood flood-opacity="0" result="BackgroundImageFix"/><feBlend in="SourceGraphic" in2="BackgroundImageFix" result="shape"/><feGaussianBlur stdDeviation="11.503" result="effect1_foregroundBlur_6001_463"/></filter><clipPath id="a"><path fill="#fff" d="M0 0h112v113H0z"/></clipPath></defs></svg>